<?xml version="1.0" encoding="UTF-8" standalone="no"?>
<!-- Created with Inkscape (http://www.inkscape.org/) -->

<svg
   xmlns:dc="http://purl.org/dc/elements/1.1/"
   xmlns:cc="http://creativecommons.org/ns#"
   xmlns:rdf="http://www.w3.org/1999/02/22-rdf-syntax-ns#"
   xmlns:svg="http://www.w3.org/2000/svg"
   xmlns="http://www.w3.org/2000/svg"
   xmlns:sodipodi="http://sodipodi.sourceforge.net/DTD/sodipodi-0.dtd"
   xmlns:inkscape="http://www.inkscape.org/namespaces/inkscape"
   width="138.61143mm"
   height="45.478092mm"
   viewBox="0 0 491.14288 161.14285"
   id="svg9358"
   version="1.1"
   inkscape:version="0.91 r13725"
   sodipodi:docname="connects_people.svg">
  <defs
     id="defs9360">
    <marker
       inkscape:stockid="Arrow2Lstart"
       orient="auto"
       refY="0"
       refX="0"
       id="Arrow2Lstart"
       style="overflow:visible"
       inkscape:isstock="true">
      <path
         id="path9947"
         style="fill:#121259;fill-opacity:1;fill-rule:evenodd;stroke:#121259;stroke-width:0.625;stroke-linejoin:round;stroke-opacity:1"
         d="M 8.7185878,4.0337352 -2.2072895,0.01601326 8.7185884,-4.0017078 c -1.7454984,2.3720609 -1.7354408,5.6174519 -6e-7,8.035443 z"
         transform="matrix(1.1,0,0,1.1,1.1,0)"
         inkscape:connector-curvature="0" />
    </marker>
    <marker
       inkscape:stockid="Arrow1Lstart"
       orient="auto"
       refY="0"
       refX="0"
       id="Arrow1Lstart"
       style="overflow:visible"
       inkscape:isstock="true">
      <path
         id="path9929"
         d="M 0,0 5,-5 -12.5,0 5,5 0,0 Z"
         style="fill:#121259;fill-opacity:1;fill-rule:evenodd;stroke:#121259;stroke-width:1pt;stroke-opacity:1"
         transform="matrix(0.8,0,0,0.8,10,0)"
         inkscape:connector-curvature="0" />
    </marker>
    <marker
       inkscape:stockid="Arrow2Lend"
       orient="auto"
       refY="0"
       refX="0"
       id="marker10729"
       style="overflow:visible"
       inkscape:isstock="true">
      <path
         id="path10731"
         style="fill:#121259;fill-opacity:1;fill-rule:evenodd;stroke:#121259;stroke-width:0.625;stroke-linejoin:round;stroke-opacity:1"
         d="M 8.7185878,4.0337352 -2.2072895,0.01601326 8.7185884,-4.0017078 c -1.7454984,2.3720609 -1.7354408,5.6174519 -6e-7,8.035443 z"
         transform="matrix(-1.1,0,0,-1.1,-1.1,0)"
         inkscape:connector-curvature="0" />
    </marker>
    <marker
       inkscape:stockid="Arrow2Lend"
       orient="auto"
       refY="0"
       refX="0"
       id="Arrow2Lend"
       style="overflow:visible"
       inkscape:isstock="true">
      <path
         id="path9950"
         style="fill:#121259;fill-opacity:1;fill-rule:evenodd;stroke:#121259;stroke-width:0.625;stroke-linejoin:round;stroke-opacity:1"
         d="M 8.7185878,4.0337352 -2.2072895,0.01601326 8.7185884,-4.0017078 c -1.7454984,2.3720609 -1.7354408,5.6174519 -6e-7,8.035443 z"
         transform="matrix(-1.1,0,0,-1.1,-1.1,0)"
         inkscape:connector-curvature="0" />
    </marker>
    <marker
       inkscape:stockid="Arrow1Lend"
       orient="auto"
       refY="0"
       refX="0"
       id="Arrow1Lend"
       style="overflow:visible"
       inkscape:isstock="true">
      <path
         id="path9932"
         d="M 0,0 5,-5 -12.5,0 5,5 0,0 Z"
         style="fill:#000000;fill-opacity:1;fill-rule:evenodd;stroke:#000000;stroke-width:1pt;stroke-opacity:1"
         transform="matrix(-0.8,0,0,-0.8,-10,0)"
         inkscape:connector-curvature="0" />
    </marker>
  </defs>
  <sodipodi:namedview
     id="base"
     pagecolor="#ffffff"
     bordercolor="#666666"
     borderopacity="1.0"
     inkscape:pageopacity="0.0"
     inkscape:pageshadow="2"
     inkscape:zoom="1.3642857"
     inkscape:cx="236.6148"
     inkscape:cy="-32.285708"
     inkscape:document-units="px"
     inkscape:current-layer="layer1"
     showgrid="false"
     fit-margin-top="0"
     fit-margin-left="0"
     fit-margin-right="0"
     fit-margin-bottom="0"
     inkscape:window-width="1871"
     inkscape:window-height="1056"
     inkscape:window-x="49"
     inkscape:window-y="24"
     inkscape:window-maximized="1" />
  <metadata
     id="metadata9363">
    <rdf:RDF>
      <cc:Work
         rdf:about="">
        <dc:format>image/svg+xml</dc:format>
        <dc:type
           rdf:resource="http://purl.org/dc/dcmitype/StillImage" />
        <dc:title />
      </cc:Work>
    </rdf:RDF>
  </metadata>
  <g
     inkscape:label="Layer 1"
     inkscape:groupmode="layer"
     id="layer1"
     transform="translate(-129.42857,-251.79079)">
    <circle
       style="opacity:1;fill:#9fdbd1;fill-opacity:1;stroke:#e7002f;stroke-width:4;stroke-miterlimit:4;stroke-dasharray:none;stroke-dashoffset:0;stroke-opacity:1"
       id="path9906-1"
       cx="540"
       cy="332.36221"
       r="78.571426" />
    <path
       style="fill:none;fill-rule:evenodd;stroke:#121259;stroke-width:4;stroke-linecap:butt;stroke-linejoin:miter;stroke-miterlimit:4;stroke-dasharray:12, 4;stroke-dashoffset:0;stroke-opacity:1;marker-start:url(#Arrow2Lstart);marker-end:url(#Arrow2Lend)"
       d="m 266.22865,332.36221 150.24682,0"
       id="path9923"
       inkscape:connector-curvature="0"
       sodipodi:nodetypes="cc" />
    <g
       transform="matrix(1.4341393,0,0,1.4341393,109.03629,250.73556)"
       id="g12632">
      <path
         inkscape:connector-curvature="0"
         d="m 73.313,84.355 -1.314,0 -0.679,6.684 3.175,-4.427 c 0.372,-0.518 0.451,-1.075 0.218,-1.531 -0.236,-0.461 -0.747,-0.726 -1.4,-0.726 z"
         id="path12634" />
      <path
         inkscape:connector-curvature="0"
         d="m 28.397,84.355 c -0.654,0 -1.165,0.266 -1.402,0.728 -0.234,0.455 -0.155,1.013 0.215,1.529 l 3.187,4.443 -0.681,-6.7 -1.319,0 z"
         id="path12636" />
      <path
         inkscape:connector-curvature="0"
         d="m 72.735,54.617 -9.572,-2.516 c -2.012,-0.528 -4.409,-1.672 -4.409,-4.127 l 0,-0.486 c 2.985,1.684 5.791,2.335 11.997,1.265 C 61.034,39.941 81.093,10.439 62.802,9.772 62.396,9.731 62.006,9.71 61.622,9.696 58.989,5.479 52.599,2.075 40.393,4.466 21.786,8.111 36.591,36.82 28.731,48.919 c 5.801,0.718 8.794,0.371 12.515,-1.791 l 0,0.96 c 0,2.456 -2.398,3.6 -4.41,4.128 l -9.573,2.516 c -4.139,1.088 -6.92,4.604 -6.92,8.748 l 0,15.285 0.532,0.138 c 2.779,0.716 5.608,1.313 8.472,1.815 L 28.302,70.435 c -0.131,-1.286 0.258,-2.504 1.094,-3.43 0.832,-0.92 1.995,-1.428 3.276,-1.428 l 36.378,0 c 1.279,0 2.441,0.507 3.271,1.426 0.836,0.925 1.225,2.144 1.094,3.432 L 72.4,80.404 c 2.268,-0.436 4.512,-0.934 6.725,-1.503 l 0.532,-0.138 0,-15.397 c 0,-4.145 -2.782,-7.661 -6.922,-8.749 z M 38.368,36.597 C 37.88,34.888 37.471,33.319 37.116,31.796 L 37.024,31.399 36.633,31.28 c -0.982,-0.3 -1.696,-1.487 -1.696,-2.823 0,-0.886 0.304,-1.714 0.833,-2.271 l 0.15,-0.158 0.035,-0.216 c 0.093,-0.569 0.155,-0.979 0.197,-1.313 9.012,-0.295 19.701,-3.362 24.144,-11.582 -0.079,3.953 1.686,6.288 4.21,7.783 0.003,0.124 0.01,0.239 0.013,0.364 0.039,1.914 0.006,2.11 -0.104,2.765 -0.062,0.372 -0.146,0.879 -0.254,1.848 l -0.035,0.316 0.213,0.236 c 0.503,0.558 0.791,1.369 0.791,2.227 0,1.279 -0.648,2.424 -1.576,2.782 l -0.348,0.134 -0.087,0.362 c -0.4,1.675 -0.892,3.292 -1.46,4.808 -1.021,2.722 -2.387,4.85 -4.063,6.326 -2.283,1.666 -5.017,3.36 -8.019,3.36 -0.003,0 -0.005,0 -0.008,0 -2.32,-0.001 -4.658,-1.571 -7.132,-3.232 L 42.134,42.792 C 40.397,41.276 39.095,39.147 38.368,36.597 Z M 50,60.064 c -4.9,-1.878 -7.914,-4.598 -9.924,-7.689 1.674,-1.052 2.587,-2.511 2.587,-4.289 l 0,-3.235 c 2.291,1.512 4.507,2.794 6.906,2.796 0.003,0 0.006,0 0.009,0 2.919,0 5.521,-1.347 7.758,-2.863 l 0,3.19 c 0,1.795 0.932,3.266 2.64,4.319 -2.01,3.127 -5.034,5.877 -9.976,7.771 z"
         id="path12638" />
      <path
         inkscape:connector-curvature="0"
         d="m 69.049,67.703 -36.378,0 c -0.672,0 -1.275,0.258 -1.698,0.727 -0.428,0.473 -0.625,1.108 -0.556,1.789 l 1.437,14.137 0.939,9.243 c 0.15,1.479 1.283,2.728 2.473,2.728 l 31.18,0 c 1.192,0 2.327,-1.249 2.478,-2.728 L 69.863,84.356 71.3,70.219 C 71.369,69.537 71.172,68.901 70.744,68.427 70.321,67.96 69.72,67.703 69.049,67.703 Z M 50.858,85.129 c -1.718,0 -3.115,-1.397 -3.115,-3.115 0,-1.717 1.397,-3.114 3.115,-3.114 1.717,0 3.114,1.397 3.114,3.114 10e-4,1.717 -1.397,3.115 -3.114,3.115 z"
         id="path12640" />
    </g>
    <text
       style="font-weight:bold;font-size:6.49824667px;font-family:'Helvetica Neue', Helvetica, Arial-Unicode, Arial, Sans-serif;fill:#000000"
       x="137.92506"
       y="400.68948"
       font-size="5px"
       font-weight="bold"
       id="text12642">Created by Nikita Kozin</text>
    <text
       style="font-weight:bold;font-size:6.49824667px;font-family:'Helvetica Neue', Helvetica, Arial-Unicode, Arial, Sans-serif;fill:#000000"
       x="138.12001"
       y="407.18771"
       font-size="5px"
       font-weight="bold"
       id="text12644">from the Noun Project</text>
  </g>
</svg>
